<?xml version="1.0" encoding="UTF-8" standalone="no"?>
<!-- Created with Inkscape (http://www.inkscape.org/) -->

<svg
   version="1.1"
   id="svg2"
   width="500"
   height="500"
   viewBox="0 0 500 500"
   sodipodi:docname="social-media-5995251 - Copy.svg"
   inkscape:version="1.3 (0e150ed6c4, 2023-07-21)"
   xmlns:inkscape="http://www.inkscape.org/namespaces/inkscape"
   xmlns:sodipodi="http://sodipodi.sourceforge.net/DTD/sodipodi-0.dtd"
   xmlns="http://www.w3.org/2000/svg"
   xmlns:svg="http://www.w3.org/2000/svg">
  <defs
     id="defs6">
    <clipPath
       clipPathUnits="userSpaceOnUse"
       id="clipPath16">
      <path
         d="M 0,366 H 990 V 0 H 0 Z"
         id="path14" />
    </clipPath>
  </defs>
  <sodipodi:namedview
     id="namedview4"
     pagecolor="#ffffff"
     bordercolor="#000000"
     borderopacity="0.25"
     inkscape:showpageshadow="2"
     inkscape:pageopacity="0.0"
     inkscape:pagecheckerboard="0"
     inkscape:deskcolor="#d1d1d1"
     inkscape:zoom="0.96852202"
     inkscape:cx="447.07296"
     inkscape:cy="214.24397"
     inkscape:window-width="1920"
     inkscape:window-height="1001"
     inkscape:window-x="-9"
     inkscape:window-y="-9"
     inkscape:window-maximized="1"
     inkscape:current-layer="g8" />
  <g
     id="g8"
     inkscape:groupmode="layer"
     inkscape:label="social-media-5995251"
     transform="matrix(1.3333333,0,0,-1.3333333,0,488)">
    <g
       id="g10"
       transform="matrix(2.1503916,0,0,2.1503916,-655.24559,-216.56865)">
      <g
         id="g12"
         clip-path="url(#clipPath16)">
        <g
           id="g18"
           transform="translate(263,184.5)">
          <path
             d="m 0,0 c 0,-45.011 -36.489,-81.5 -81.5,-81.5 -45.011,0 -81.5,36.489 -81.5,81.5 0,45.011 36.489,81.5 81.5,81.5 C -36.489,81.5 0,45.011 0,0"
             style="fill:#3fa9f5;fill-opacity:1;fill-rule:nonzero;stroke:none"
             id="path20" />
        </g>
        <g
           id="g22"
           transform="translate(477,181.5)">
          <path
             d="m 0,0 c 0,-45.011 -36.489,-81.5 -81.5,-81.5 -45.011,0 -81.5,36.489 -81.5,81.5 0,45.011 36.489,81.5 81.5,81.5 C -36.489,81.5 0,45.011 0,0"
             style="fill:#3fa9f5;fill-opacity:1;fill-rule:nonzero;stroke:none"
             id="path24" />
        </g>
        <g
           id="g26"
           transform="translate(197,212.7085)">
          <path
             d="m 0,0 c -1.629,0.917 -3.479,1.375 -5.549,1.375 -5.837,0 -8.756,-3.684 -8.756,-11.047 v -8.044 h 12.218 v -7.127 h -12.218 v -45.002 h -8.298 v 45.002 h -8.909 v 7.127 h 8.909 v 8.451 c 0,5.464 1.578,9.782 4.734,12.956 3.157,3.173 7.094,4.76 11.811,4.76 2.545,0 4.564,-0.306 6.058,-0.917 z"
             style="fill:#f2f2f2;fill-opacity:1;fill-rule:nonzero;stroke:none"
             id="path28" />
        </g>
        <g
           id="g30"
           transform="translate(197,212.7085)">
          <path
             d="m 0,0 c -1.629,0.917 -3.479,1.375 -5.549,1.375 -5.837,0 -8.756,-3.684 -8.756,-11.047 v -8.044 h 12.218 v -7.127 h -12.218 v -45.002 h -8.298 v 45.002 h -8.909 v 7.127 h 8.909 v 8.451 c 0,5.464 1.578,9.782 4.734,12.956 3.157,3.173 7.094,4.76 11.811,4.76 2.545,0 4.564,-0.306 6.058,-0.917 z"
             style="fill:none;stroke:#ffffff;stroke-width:3;stroke-linecap:round;stroke-linejoin:round;stroke-miterlimit:10;stroke-dasharray:none;stroke-opacity:1"
             id="path32" />
        </g>
        <g
           id="g34"
           transform="translate(415.6152,141)">
          <path
             d="m 0,0 h -41.23 c -10.707,0 -19.385,8.679 -19.385,19.385 v 41.23 C -60.615,71.321 -51.937,80 -41.23,80 H 0 C 10.706,80 19.385,71.321 19.385,60.615 V 19.385 C 19.385,8.679 10.706,0 0,0 Z"
             style="fill:none;stroke:#ffffff;stroke-width:4;stroke-linecap:butt;stroke-linejoin:miter;stroke-miterlimit:10;stroke-dasharray:none;stroke-opacity:1"
             id="path36" />
        </g>
        <g
           id="g38"
           transform="translate(395,164.9287)">
          <path
             d="m 0,0 v 0 c -8.876,0 -16.071,7.195 -16.071,16.071 0,8.876 7.195,16.072 16.071,16.072 8.876,0 16.071,-7.196 16.071,-16.072 C 16.071,7.195 8.876,0 0,0 Z"
             style="fill:none;stroke:#ffffff;stroke-width:4;stroke-linecap:butt;stroke-linejoin:miter;stroke-miterlimit:10;stroke-dasharray:none;stroke-opacity:1"
             id="path40" />
        </g>
        <g
           id="g42"
           transform="translate(687,184.5)">
          <path
             d="m 0,0 c 0,-45.011 -36.489,-81.5 -81.5,-81.5 -45.011,0 -81.5,36.489 -81.5,81.5 0,45.011 36.489,81.5 81.5,81.5 C -36.489,81.5 0,45.011 0,0"
             style="fill:#3fa9f5;fill-opacity:1;fill-rule:nonzero;stroke:none"
             id="path44" />
        </g>
        <g
           id="g46"
           transform="translate(890,182.5)">
          <path
             d="m 0,0 c 0,-45.011 -36.489,-81.5 -81.5,-81.5 -45.011,0 -81.5,36.489 -81.5,81.5 0,45.011 36.489,81.5 81.5,81.5 C -36.489,81.5 0,45.011 0,0"
             style="fill:#3fa9f5;fill-opacity:1;fill-rule:nonzero;stroke:none"
             id="path48" />
        </g>
        <g
           id="g50"
           transform="translate(418.9644,200.9287)">
          <path
             d="m 0,0 v 0 c -2.229,0 -4.036,1.807 -4.036,4.036 0,2.229 1.807,4.035 4.036,4.035 2.229,0 4.036,-1.806 4.036,-4.035 C 4.036,1.807 2.229,0 0,0"
             style="fill:#ffffff;fill-opacity:1;fill-rule:nonzero;stroke:none"
             id="path52" />
        </g>
        <g
           id="g54"
           transform="translate(569.9463,157.6763)">
          <path
             d="m 0,0 c 8.581,-0.593 16.251,1.431 23.136,6.452 -6.103,1.604 -11.383,3.945 -14.129,10.099 -2.115,3.217 4.16,0.91 5.848,2.072 C 8.268,21.199 3.22,25.882 2.555,33.27 1.943,36.715 6.843,32.597 9.173,33.418 3.221,38.597 0.688,46.334 4.051,53.7 c 0.521,1.202 0.912,1.529 1.956,0.351 6.708,-7.573 14.971,-12.598 24.847,-14.917 1.644,-0.009 8.817,-2.685 7.966,0.434 -2.346,14.782 16.54,24.862 27.592,14.536 3.279,-2.135 7.882,1.544 11.187,2.653 -0.052,-2.179 -0.799,-3.259 -5.871,-8.558 2.897,0.154 5.43,1.247 8.429,2.177 C 77.951,45.424 71.8,43.796 72.032,39.118 73.123,3.608 28.835,-20.958 0,0"
             style="fill:#ffffff;fill-opacity:1;fill-rule:nonzero;stroke:none"
             id="path56" />
        </g>
        <g
           id="g58"
           transform="translate(569.9463,157.6763)">
          <path
             d="m 0,0 c 8.581,-0.593 16.251,1.431 23.136,6.452 -6.103,1.604 -11.383,3.945 -14.129,10.099 -2.115,3.217 4.16,0.91 5.848,2.072 C 8.268,21.199 3.22,25.882 2.555,33.27 1.943,36.715 6.843,32.597 9.173,33.418 3.221,38.597 0.688,46.334 4.051,53.7 c 0.521,1.202 0.912,1.529 1.956,0.351 6.708,-7.573 14.971,-12.598 24.847,-14.917 1.644,-0.009 8.817,-2.685 7.966,0.434 -2.346,14.782 16.54,24.862 27.592,14.536 3.279,-2.135 7.882,1.544 11.187,2.653 -0.052,-2.179 -0.799,-3.259 -5.871,-8.558 2.897,0.154 5.43,1.247 8.429,2.177 C 77.951,45.424 71.8,43.796 72.032,39.118 73.123,3.608 28.835,-20.958 0,0 Z"
             style="fill:none;stroke:#ffffff;stroke-width:3;stroke-linecap:round;stroke-linejoin:round;stroke-miterlimit:10;stroke-dasharray:none;stroke-opacity:1"
             id="path60" />
        </g>
        <g
           id="g62"
           transform="translate(788.4033,216.9478)">
          <path
             d="M 0,0 C -0.008,-4.837 -3.868,-8.668 -8.735,-8.668 -20.216,-8.417 -20.098,8.385 -8.755,8.681 -3.949,8.686 0.01,4.764 0,0"
             style="fill:#ffffff;fill-opacity:1;fill-rule:nonzero;stroke:none"
             id="path64" />
        </g>
        <g
           id="g66"
           transform="translate(788.4033,216.9478)">
          <path
             d="M 0,0 C -0.008,-4.837 -3.868,-8.668 -8.735,-8.668 -20.216,-8.417 -20.098,8.385 -8.755,8.681 -3.949,8.686 0.01,4.764 0,0 Z"
             style="fill:none;stroke:#ffffff;stroke-width:3;stroke-linecap:butt;stroke-linejoin:miter;stroke-miterlimit:10;stroke-dasharray:none;stroke-opacity:1"
             id="path68" />
        </g>
        <g
           id="g70"
           transform="translate(787.1543,154.252)">
          <path
             d="m 0,0 c 0.003,-1.136 -0.438,-1.486 -1.525,-1.476 -3.993,0.041 -7.988,0.049 -11.984,-0.003 -1.214,-0.017 -1.524,0.488 -1.519,1.609 0.046,15.041 0.001,30.084 0.016,45.128 0,1.856 0.02,1.875 1.817,1.878 3.912,0.005 7.827,-0.022 11.739,0.014 C -0.421,47.16 0,46.817 0,45.74 -0.021,30.494 -0.021,15.247 0,0"
             style="fill:#ffffff;fill-opacity:1;fill-rule:nonzero;stroke:none"
             id="path72" />
        </g>
        <g
           id="g74"
           transform="translate(787.1543,154.252)">
          <path
             d="m 0,0 c 0.003,-1.136 -0.438,-1.486 -1.525,-1.476 -3.993,0.041 -7.988,0.049 -11.984,-0.003 -1.214,-0.017 -1.524,0.488 -1.519,1.609 0.046,15.041 0.001,30.084 0.016,45.128 0,1.856 0.02,1.875 1.817,1.878 3.912,0.005 7.827,-0.022 11.739,0.014 C -0.421,47.16 0,46.817 0,45.74 -0.021,30.494 -0.021,15.247 0,0 Z"
             style="fill:none;stroke:#ffffff;stroke-width:3;stroke-linecap:butt;stroke-linejoin:miter;stroke-miterlimit:10;stroke-dasharray:none;stroke-opacity:1"
             id="path76" />
        </g>
        <g
           id="g78"
           transform="translate(843.999,168.5)">
          <path
             d="m 0,0 c 0,-4.651 0.003,-9.3 -0.002,-13.952 0,-1.689 -0.061,-1.753 -1.696,-1.755 -3.917,-0.005 -7.832,-0.005 -11.749,0.002 -1.5,0.003 -1.604,0.103 -1.606,1.606 -0.008,7.873 -0.005,15.746 -0.005,23.62 0,1.921 -0.071,3.833 -0.553,5.708 -0.862,3.352 -2.876,5.269 -5.964,5.675 -7.986,1.022 -10.795,-5.011 -10.686,-11.635 -0.061,-7.668 -0.027,-15.338 -0.034,-23.008 0,-1.963 -0.005,-1.968 -1.983,-1.968 -3.794,-0.002 -7.589,0.024 -11.384,-0.015 -1.097,-0.012 -1.518,0.372 -1.515,1.493 0.022,15.216 0.022,30.433 -0.003,45.65 -0.002,1.129 0.424,1.496 1.518,1.484 3.795,-0.044 7.587,-0.039 11.382,-0.003 1.04,0.01 1.491,-0.35 1.451,-1.422 -0.054,-1.383 -0.015,-2.773 0.003,-4.159 0.005,-0.264 -0.076,-0.63 0.281,-0.732 0.279,-0.081 0.424,0.196 0.551,0.394 4.877,7.667 15.065,8.419 22.403,5.621 3.49,-1.332 5.875,-3.89 7.359,-7.298 C -0.57,21.487 -0.164,17.423 -0.061,13.34 0.055,8.896 -0.034,4.446 -0.034,0 Z"
             style="fill:#ffffff;fill-opacity:1;fill-rule:nonzero;stroke:none"
             id="path80" />
        </g>
        <g
           id="g82"
           transform="translate(843.999,168.5)">
          <path
             d="m 0,0 c 0,-4.651 0.003,-9.3 -0.002,-13.952 0,-1.689 -0.061,-1.753 -1.696,-1.755 -3.917,-0.005 -7.832,-0.005 -11.749,0.002 -1.5,0.003 -1.604,0.103 -1.606,1.606 -0.008,7.873 -0.005,15.746 -0.005,23.62 0,1.921 -0.071,3.833 -0.553,5.708 -0.862,3.352 -2.876,5.269 -5.964,5.675 -7.986,1.022 -10.795,-5.011 -10.686,-11.635 -0.061,-7.668 -0.027,-15.338 -0.034,-23.008 0,-1.963 -0.005,-1.968 -1.983,-1.968 -3.794,-0.002 -7.589,0.024 -11.384,-0.015 -1.097,-0.012 -1.518,0.372 -1.515,1.493 0.022,15.216 0.022,30.433 -0.003,45.65 -0.002,1.129 0.424,1.496 1.518,1.484 3.795,-0.044 7.587,-0.039 11.382,-0.003 1.04,0.01 1.491,-0.35 1.451,-1.422 -0.054,-1.383 -0.015,-2.773 0.003,-4.159 0.005,-0.264 -0.076,-0.63 0.281,-0.732 0.279,-0.081 0.424,0.196 0.551,0.394 4.877,7.667 15.065,8.419 22.403,5.621 3.49,-1.332 5.875,-3.89 7.359,-7.298 C -0.57,21.487 -0.164,17.423 -0.061,13.34 0.055,8.896 -0.034,4.446 -0.034,0 Z"
             style="fill:none;stroke:#ffffff;stroke-width:3;stroke-linecap:butt;stroke-linejoin:miter;stroke-miterlimit:10;stroke-dasharray:none;stroke-opacity:1"
             id="path84" />
        </g>
      </g>
    </g>
  </g>
</svg>
