<?xml version="1.0" encoding="UTF-8" standalone="no"?>
<!-- Created with Inkscape (http://www.inkscape.org/) -->

<svg
   version="1.1"
   id="svg2"
   width="500"
   height="500"
   viewBox="0 0 500 500"
   sodipodi:docname="Twitter.svg"
   inkscape:version="1.3 (0e150ed6c4, 2023-07-21)"
   xmlns:inkscape="http://www.inkscape.org/namespaces/inkscape"
   xmlns:sodipodi="http://sodipodi.sourceforge.net/DTD/sodipodi-0.dtd"
   xmlns="http://www.w3.org/2000/svg"
   xmlns:svg="http://www.w3.org/2000/svg">
  <defs
     id="defs6">
    <clipPath
       clipPathUnits="userSpaceOnUse"
       id="clipPath16">
      <path
         d="M 0,366 H 990 V 0 H 0 Z"
         id="path14" />
    </clipPath>
  </defs>
  <sodipodi:namedview
     id="namedview4"
     pagecolor="#ffffff"
     bordercolor="#000000"
     borderopacity="0.25"
     inkscape:showpageshadow="2"
     inkscape:pageopacity="0.0"
     inkscape:pagecheckerboard="0"
     inkscape:deskcolor="#d1d1d1"
     inkscape:zoom="0.8530303"
     inkscape:cx="660"
     inkscape:cy="127.19361"
     inkscape:window-width="1920"
     inkscape:window-height="1001"
     inkscape:window-x="-9"
     inkscape:window-y="-9"
     inkscape:window-maximized="1"
     inkscape:current-layer="g8" />
  <g
     id="g8"
     inkscape:groupmode="layer"
     inkscape:label="social-media-5995251"
     transform="matrix(1.3333333,0,0,-1.3333333,0,488)">
    <g
       id="g12"
       clip-path="url(#clipPath16)"
       transform="matrix(1.0931172,0,0,1.0931172,-391.59257,-38.067799)">
      <g
         id="g42"
         transform="matrix(1.9115824,0,0,1.9115824,683.48313,196.36945)">
        <path
           d="m 0,0 c 0,-45.011 -36.489,-81.5 -81.5,-81.5 -45.011,0 -81.5,36.489 -81.5,81.5 0,45.011 36.489,81.5 81.5,81.5 C -36.489,81.5 0,45.011 0,0"
           style="fill:#3fa9f5;fill-opacity:1;fill-rule:nonzero;stroke:none"
           id="path44" />
      </g>
      <g
         id="g54"
         transform="matrix(1.9115824,0,0,1.9115824,459.72534,145.09373)">
        <path
           d="m 0,0 c 8.581,-0.593 16.251,1.431 23.136,6.452 -6.103,1.604 -11.383,3.945 -14.129,10.099 -2.115,3.217 4.16,0.91 5.848,2.072 C 8.268,21.199 3.22,25.882 2.555,33.27 1.943,36.715 6.843,32.597 9.173,33.418 3.221,38.597 0.688,46.334 4.051,53.7 c 0.521,1.202 0.912,1.529 1.956,0.351 6.708,-7.573 14.971,-12.598 24.847,-14.917 1.644,-0.009 8.817,-2.685 7.966,0.434 -2.346,14.782 16.54,24.862 27.592,14.536 3.279,-2.135 7.882,1.544 11.187,2.653 -0.052,-2.179 -0.799,-3.259 -5.871,-8.558 2.897,0.154 5.43,1.247 8.429,2.177 C 77.951,45.424 71.8,43.796 72.032,39.118 73.123,3.608 28.835,-20.958 0,0"
           style="fill:#ffffff;fill-opacity:1;fill-rule:nonzero;stroke:none"
           id="path56" />
      </g>
      <g
         id="g58"
         transform="matrix(1.9115824,0,0,1.9115824,459.72534,145.09373)">
        <path
           d="m 0,0 c 8.581,-0.593 16.251,1.431 23.136,6.452 -6.103,1.604 -11.383,3.945 -14.129,10.099 -2.115,3.217 4.16,0.91 5.848,2.072 C 8.268,21.199 3.22,25.882 2.555,33.27 1.943,36.715 6.843,32.597 9.173,33.418 3.221,38.597 0.688,46.334 4.051,53.7 c 0.521,1.202 0.912,1.529 1.956,0.351 6.708,-7.573 14.971,-12.598 24.847,-14.917 1.644,-0.009 8.817,-2.685 7.966,0.434 -2.346,14.782 16.54,24.862 27.592,14.536 3.279,-2.135 7.882,1.544 11.187,2.653 -0.052,-2.179 -0.799,-3.259 -5.871,-8.558 2.897,0.154 5.43,1.247 8.429,2.177 C 77.951,45.424 71.8,43.796 72.032,39.118 73.123,3.608 28.835,-20.958 0,0 Z"
           style="fill:none;stroke:#ffffff;stroke-width:3;stroke-linecap:round;stroke-linejoin:round;stroke-miterlimit:10;stroke-dasharray:none;stroke-opacity:1"
           id="path60" />
      </g>
    </g>
  </g>
</svg>
